<?xml version="1.0" encoding="utf-8"?>
<svg xmlns="http://www.w3.org/2000/svg" viewBox="0 0 261 80">
  <style>
    path {
      fill: #23292e;
    }
    @media (prefers-color-scheme: dark) {
      path {
        fill: #acb9c6;
      }
    }
  </style>
 <path d="M 0.00,18.13 C 0.02,17.55 -0.03,16.94 0.43,16.49 0.93,15.99 2.73,15.62 3.46,15.43 3.46,15.43 9.59,13.71 9.59,13.71 20.11,10.79 30.83,8.51 41.55,6.45 48.00,5.21 54.70,4.21 61.26,3.73 61.26,3.73 63.39,3.73 63.39,3.73 63.39,3.73 66.58,3.47 66.58,3.47 66.58,3.47 74.57,3.47 74.57,3.47 74.57,3.47 79.90,3.92 79.90,3.92 86.70,4.76 93.73,6.44 99.07,11.01 101.55,13.14 103.66,15.71 105.07,18.67 105.07,18.67 107.40,24.50 107.40,24.50 108.12,25.69 110.31,26.01 111.59,26.79 114.13,28.35 114.78,30.54 114.79,33.33 114.79,33.33 114.79,44.27 114.79,44.27 114.79,47.71 114.54,50.03 115.85,53.33 115.85,53.33 111.86,53.33 111.86,53.33 113.53,58.45 114.42,61.99 118.27,66.13 123.89,72.17 132.40,74.37 140.35,74.96 140.35,74.96 143.55,75.20 143.55,75.20 143.55,75.20 151.54,75.20 151.54,75.20 151.54,75.20 154.74,74.96 154.74,74.96 154.74,74.96 170.45,73.13 170.45,73.13 178.31,71.82 186.15,70.32 193.89,68.41 193.89,68.41 209.87,64.27 209.87,64.27 211.70,63.74 215.92,62.27 217.59,62.67 218.77,56.87 222.51,52.25 225.75,47.47 231.62,38.83 237.65,30.37 244.07,22.13 246.25,19.33 248.63,16.65 251.15,14.13 252.81,12.47 254.58,10.66 256.74,9.64 257.16,9.43 257.61,9.26 258.07,9.17 261.97,8.38 261.21,12.17 260.13,14.40 257.85,19.13 252.98,25.63 249.72,29.87 249.72,29.87 231.55,52.27 231.55,52.27 228.71,55.64 226.20,58.97 222.65,61.63 221.94,62.16 219.65,63.85 218.92,64.03 218.92,64.03 217.06,64.03 217.06,64.03 217.06,64.03 210.13,65.94 210.13,65.94 210.13,65.94 198.41,68.97 198.41,68.97 188.13,71.54 177.76,73.77 167.25,75.23 167.25,75.23 156.87,76.52 156.87,76.52 156.87,76.52 154.47,76.52 154.47,76.52 154.47,76.52 151.27,76.80 151.27,76.80 151.27,76.80 143.55,76.80 143.55,76.80 143.55,76.80 140.35,76.56 140.35,76.56 131.76,75.93 122.15,73.58 116.39,66.66 114.61,64.53 112.86,61.53 111.87,58.93 111.87,58.93 110.46,54.42 110.46,54.42 109.79,52.85 108.82,53.67 108.05,53.07 107.58,52.70 107.44,51.76 107.33,51.20 106.33,51.86 105.24,52.64 104.13,53.09 99.39,54.99 91.23,54.78 89.25,49.07 88.95,48.23 88.73,47.02 88.70,46.13 88.66,45.14 88.74,44.43 88.99,43.47 90.45,37.96 95.95,37.64 100.67,36.95 102.47,36.70 105.14,36.67 106.39,35.14 107.55,33.74 106.62,31.62 105.19,30.82 103.45,29.85 100.39,30.07 98.83,31.35 97.44,32.49 97.70,33.64 97.05,34.13 96.68,34.41 96.06,34.39 95.61,34.40 95.61,34.40 89.49,34.40 89.49,34.40 89.58,33.22 89.78,32.03 90.25,30.93 92.15,26.53 96.61,25.34 100.94,25.04 101.77,24.98 102.19,24.82 103.07,24.89 103.07,24.89 105.73,25.07 105.73,25.07 104.88,22.22 104.08,20.11 102.44,17.60 101.22,15.73 100.23,14.36 98.54,12.85 92.95,7.84 85.08,5.84 77.77,5.31 77.77,5.31 74.57,5.07 74.57,5.07 74.57,5.07 65.78,5.07 65.78,5.07 65.78,5.07 63.12,5.31 63.12,5.31 56.66,5.75 50.33,6.56 43.94,7.67 29.12,10.24 14.43,13.91 0.00,18.13 Z M 259.40,10.93 C 257.14,11.06 255.68,12.34 254.09,13.85 251.78,16.02 249.56,18.37 247.53,20.80 240.50,29.23 233.76,38.88 227.62,48.00 225.40,51.31 220.92,57.09 220.25,60.80 223.40,59.25 224.84,57.26 227.02,54.67 227.02,54.67 232.70,48.00 232.70,48.00 232.70,48.00 250.41,25.87 250.41,25.87 253.67,21.55 257.86,16.12 259.40,10.93 Z M 15.71,30.40 C 16.83,27.04 20.59,25.08 23.97,24.90 23.97,24.90 26.10,25.07 26.10,25.07 26.10,25.07 26.10,32.27 26.10,32.27 24.08,32.27 21.83,32.00 19.97,32.89 17.04,34.29 16.02,37.20 15.98,40.27 15.98,40.27 15.98,53.33 15.98,53.33 15.98,53.33 7.99,53.33 7.99,53.33 7.99,53.33 7.99,25.60 7.99,25.60 7.99,25.60 15.45,25.60 15.45,25.60 15.45,25.60 15.71,30.40 15.71,30.40 Z M 53.53,44.80 C 51.90,53.81 40.47,56.28 33.29,52.45 29.14,50.23 27.13,46.12 26.59,41.60 26.48,40.67 26.34,40.18 26.39,39.20 26.59,35.74 27.55,32.24 29.88,29.60 34.80,24.02 44.25,23.13 49.79,28.31 53.69,31.95 54.06,36.66 54.06,41.60 54.06,41.60 34.36,41.60 34.36,41.60 34.59,46.62 38.63,49.58 43.41,47.70 46.86,46.35 45.14,44.81 48.74,44.80 48.74,44.80 53.53,44.80 53.53,44.80 Z M 66.05,29.33 C 69.19,23.48 79.88,23.27 83.08,29.07 84.62,31.86 84.43,35.32 84.43,38.40 84.43,38.40 84.43,53.33 84.43,53.33 84.43,53.33 76.70,53.33 76.70,53.33 76.70,53.33 76.70,38.13 76.70,38.13 76.70,34.39 75.88,31.01 71.38,31.21 67.56,31.38 66.33,34.86 66.32,38.13 66.32,38.13 66.32,53.33 66.32,53.33 66.32,53.33 58.33,53.33 58.33,53.33 58.33,53.33 58.33,25.60 58.33,25.60 58.33,25.60 65.78,25.60 65.78,25.60 65.78,25.60 66.05,29.33 66.05,29.33 Z M 128.37,29.07 C 131.39,23.56 142.45,23.38 144.35,29.33 145.84,27.82 147.10,26.36 149.14,25.54 150.08,25.16 152.14,24.81 153.14,24.89 157.14,25.19 160.81,26.18 162.31,30.40 163.20,32.88 162.99,36.30 162.99,38.93 162.99,38.93 162.99,53.33 162.99,53.33 162.99,53.33 155.27,53.33 155.27,53.33 155.27,53.33 155.27,38.67 155.27,38.67 155.26,36.42 155.21,33.12 153.11,31.79 150.33,30.03 146.93,32.00 146.15,34.93 145.59,37.04 145.68,40.19 145.68,42.40 145.68,42.40 145.68,53.33 145.68,53.33 145.68,53.33 137.96,53.33 137.96,53.33 137.96,53.33 137.96,36.80 137.96,36.80 137.93,34.86 137.62,32.84 135.82,31.73 133.13,30.08 129.68,32.17 128.85,34.93 128.37,36.50 128.37,40.14 128.37,41.87 128.37,41.87 128.37,53.33 128.37,53.33 128.37,53.33 120.65,53.33 120.65,53.33 120.65,53.33 120.65,25.60 120.65,25.60 120.65,25.60 128.10,25.60 128.10,25.60 128.10,25.60 128.37,29.07 128.37,29.07 Z M 194.42,44.80 C 192.79,53.81 181.36,56.28 174.18,52.45 170.02,50.23 168.02,46.12 167.48,41.60 167.37,40.67 167.22,40.18 167.28,39.20 167.47,35.74 168.43,32.24 170.76,29.60 175.68,24.02 185.14,23.13 190.68,28.31 194.57,31.95 194.95,36.66 194.95,41.60 194.95,41.60 175.24,41.60 175.24,41.60 175.48,46.62 179.51,49.58 184.30,47.70 187.74,46.35 186.02,44.81 189.62,44.80 189.62,44.80 194.42,44.80 194.42,44.80 Z M 206.94,30.40 C 208.05,27.04 211.82,25.08 215.19,24.90 215.19,24.90 217.32,25.07 217.32,25.07 217.32,25.07 217.32,32.27 217.32,32.27 215.30,32.27 213.06,32.00 211.20,32.89 208.26,34.29 207.24,37.20 207.20,40.27 207.20,40.27 207.20,53.33 207.20,53.33 207.20,53.33 199.21,53.33 199.21,53.33 199.21,53.33 199.21,25.60 199.21,25.60 199.21,25.60 206.67,25.60 206.67,25.60 206.67,25.60 206.94,30.40 206.94,30.40 Z M 46.34,36.53 C 45.94,34.57 45.26,32.58 43.41,31.54 42.36,30.95 41.13,30.91 39.95,30.94 36.63,31.02 34.52,33.26 34.36,36.53 34.36,36.53 46.34,36.53 46.34,36.53 Z M 187.23,36.53 C 186.83,34.57 186.15,32.58 184.30,31.54 183.24,30.95 182.01,30.91 180.84,30.94 177.51,31.02 175.40,33.26 175.24,36.53 175.24,36.53 187.23,36.53 187.23,36.53 Z M 107.06,40.27 C 107.06,40.27 103.87,41.07 103.87,41.07 103.87,41.07 100.67,41.60 100.67,41.60 95.68,42.70 95.84,46.35 97.53,47.89 99.07,49.28 105.19,49.82 106.59,45.33 107.15,43.56 107.06,42.08 107.06,40.27 Z M 220.25,60.80 C 220.25,60.80 219.99,60.80 219.99,60.80 219.99,60.80 220.25,61.07 220.25,61.07 220.25,61.07 220.25,60.80 220.25,60.80 Z" id="logo-path"/> 
</svg>