<?xml version="1.0" encoding="utf-8"?>
<svg xmlns="http://www.w3.org/2000/svg">
  <style>
    path {
    fill: black;
    }
    @media (prefers-color-scheme: dark) {
    path {
    fill: white;
    }
    }
  </style>
  <path d="M 0.00,6.80 C 0.01,6.58 -0.01,6.35 0.16,6.18 0.35,6.00 1.02,5.86 1.30,5.79 1.30,5.79 3.60,5.14 3.60,5.14 7.55,4.04 11.58,3.19 15.60,2.42 18.02,1.96 20.54,1.58 23.00,1.40 23.00,1.40 23.80,1.40 23.80,1.40 23.80,1.40 25.00,1.30 25.00,1.30 25.00,1.30 28.00,1.30 28.00,1.30 28.00,1.30 30.00,1.47 30.00,1.47 32.55,1.79 35.20,2.41 37.20,4.13 38.13,4.93 38.92,5.89 39.45,7.00 39.45,7.00 40.33,9.19 40.33,9.19 40.60,9.63 41.42,9.75 41.90,10.05 42.85,10.63 43.10,11.45 43.10,12.50 43.10,12.50 43.10,16.60 43.10,16.60 43.10,17.89 43.01,18.76 43.50,20.00 43.50,20.00 42.00,20.00 42.00,20.00 42.63,21.92 42.96,23.25 44.41,24.80 46.52,27.07 49.71,27.89 52.70,28.11 52.70,28.11 53.90,28.20 53.90,28.20 53.90,28.20 56.90,28.20 56.90,28.20 56.90,28.20 58.10,28.11 58.10,28.11 58.10,28.11 64.00,27.42 64.00,27.42 66.95,26.93 69.89,26.37 72.80,25.65 72.80,25.65 78.80,24.10 78.80,24.10 79.49,23.90 81.07,23.35 81.70,23.50 82.14,21.33 83.55,19.59 84.77,17.80 86.97,14.56 89.23,11.39 91.64,8.30 92.46,7.25 93.36,6.24 94.30,5.30 94.92,4.68 95.59,4.00 96.40,3.61 96.56,3.54 96.73,3.47 96.90,3.44 98.37,3.14 98.08,4.57 97.67,5.40 96.82,7.17 94.99,9.61 93.77,11.20 93.77,11.20 86.94,19.60 86.94,19.60 85.87,20.87 84.93,22.11 83.60,23.11 83.33,23.31 82.47,23.94 82.20,24.01 82.20,24.01 81.50,24.01 81.50,24.01 81.50,24.01 78.90,24.73 78.90,24.73 78.90,24.73 74.50,25.86 74.50,25.86 70.64,26.83 66.74,27.66 62.80,28.21 62.80,28.21 58.90,28.70 58.90,28.70 58.90,28.70 58.00,28.70 58.00,28.70 58.00,28.70 56.80,28.80 56.80,28.80 56.80,28.80 53.90,28.80 53.90,28.80 53.90,28.80 52.70,28.71 52.70,28.71 49.47,28.47 45.87,27.59 43.70,25.00 43.04,24.20 42.38,23.07 42.01,22.10 42.01,22.10 41.48,20.41 41.48,20.41 41.22,19.82 40.86,20.12 40.57,19.90 40.39,19.76 40.34,19.41 40.30,19.20 39.93,19.45 39.52,19.74 39.10,19.91 37.32,20.62 34.25,20.54 33.51,18.40 33.40,18.09 33.32,17.63 33.30,17.30 33.29,16.93 33.32,16.66 33.42,16.30 33.96,14.23 36.03,14.11 37.80,13.86 38.47,13.76 39.48,13.75 39.95,13.18 40.38,12.65 40.04,11.86 39.50,11.56 38.84,11.19 37.69,11.28 37.11,11.76 36.59,12.18 36.69,12.61 36.44,12.80 36.30,12.90 36.07,12.90 35.90,12.90 35.90,12.90 33.60,12.90 33.60,12.90 33.64,12.46 33.71,12.01 33.89,11.60 34.60,9.95 36.27,9.50 37.90,9.39 38.21,9.37 38.37,9.31 38.70,9.33 38.70,9.33 39.70,9.40 39.70,9.40 39.38,8.33 39.08,7.54 38.47,6.60 38.01,5.90 37.63,5.38 37.00,4.82 34.90,2.94 31.95,2.19 29.20,1.99 29.20,1.99 28.00,1.90 28.00,1.90 28.00,1.90 24.70,1.90 24.70,1.90 24.70,1.90 23.70,1.99 23.70,1.99 21.28,2.16 18.90,2.46 16.50,2.88 10.93,3.84 5.42,5.22 0.00,6.80 Z M 97.40,4.10 C 96.55,4.15 96.00,4.63 95.40,5.19 94.54,6.01 93.71,6.89 92.94,7.80 90.30,10.96 87.77,14.58 85.47,18.00 84.63,19.24 82.95,21.41 82.70,22.80 83.88,22.22 84.42,21.47 85.24,20.50 85.24,20.50 87.38,18.00 87.38,18.00 87.38,18.00 94.02,9.70 94.02,9.70 95.25,8.08 96.82,6.04 97.40,4.10 Z M 5.90,11.40 C 6.32,10.14 7.73,9.41 9.00,9.34 9.00,9.34 9.80,9.40 9.80,9.40 9.80,9.40 9.80,12.10 9.80,12.10 9.04,12.10 8.20,12.00 7.50,12.33 6.40,12.86 6.01,13.95 6.00,15.10 6.00,15.10 6.00,20.00 6.00,20.00 6.00,20.00 3.00,20.00 3.00,20.00 3.00,20.00 3.00,9.60 3.00,9.60 3.00,9.60 5.80,9.60 5.80,9.60 5.80,9.60 5.90,11.40 5.90,11.40 Z M 20.10,16.80 C 19.49,20.18 15.20,21.10 12.50,19.67 10.94,18.84 10.19,17.29 9.98,15.60 9.94,15.25 9.89,15.07 9.91,14.70 9.98,13.40 10.34,12.09 11.22,11.10 13.07,9.01 16.62,8.67 18.70,10.62 20.16,11.98 20.30,13.75 20.30,15.60 20.30,15.60 12.90,15.60 12.90,15.60 12.99,17.48 14.50,18.59 16.30,17.89 17.59,17.38 16.95,16.80 18.30,16.80 18.30,16.80 20.10,16.80 20.10,16.80 Z M 24.80,11.00 C 25.98,8.81 29.99,8.73 31.19,10.90 31.77,11.95 31.70,13.25 31.70,14.40 31.70,14.40 31.70,20.00 31.70,20.00 31.70,20.00 28.80,20.00 28.80,20.00 28.80,20.00 28.80,14.30 28.80,14.30 28.80,12.90 28.49,11.63 26.80,11.70 25.37,11.77 24.91,13.07 24.90,14.30 24.90,14.30 24.90,20.00 24.90,20.00 24.90,20.00 21.90,20.00 21.90,20.00 21.90,20.00 21.90,9.60 21.90,9.60 21.90,9.60 24.70,9.60 24.70,9.60 24.70,9.60 24.80,11.00 24.80,11.00 Z M 48.20,10.90 C 49.33,8.83 53.49,8.77 54.20,11.00 54.76,10.43 55.23,9.88 56.00,9.58 56.35,9.43 57.12,9.30 57.50,9.33 59.00,9.44 60.38,9.82 60.95,11.40 61.28,12.33 61.20,13.61 61.20,14.60 61.20,14.60 61.20,20.00 61.20,20.00 61.20,20.00 58.30,20.00 58.30,20.00 58.30,20.00 58.30,14.50 58.30,14.50 58.30,13.66 58.28,12.42 57.49,11.92 56.45,11.26 55.17,12.00 54.88,13.10 54.67,13.89 54.70,15.07 54.70,15.90 54.70,15.90 54.70,20.00 54.70,20.00 54.70,20.00 51.80,20.00 51.80,20.00 51.80,20.00 51.80,13.80 51.80,13.80 51.79,13.07 51.67,12.31 51.00,11.90 49.99,11.28 48.69,12.06 48.38,13.10 48.20,13.69 48.20,15.05 48.20,15.70 48.20,15.70 48.20,20.00 48.20,20.00 48.20,20.00 45.30,20.00 45.30,20.00 45.30,20.00 45.30,9.60 45.30,9.60 45.30,9.60 48.10,9.60 48.10,9.60 48.10,9.60 48.20,10.90 48.20,10.90 Z M 73.00,16.80 C 72.39,20.18 68.10,21.10 65.40,19.67 63.84,18.84 63.09,17.29 62.88,15.60 62.84,15.25 62.79,15.07 62.81,14.70 62.88,13.40 63.24,12.09 64.12,11.10 65.97,9.01 69.52,8.67 71.60,10.62 73.06,11.98 73.20,13.75 73.20,15.60 73.20,15.60 65.80,15.60 65.80,15.60 65.89,17.48 67.40,18.59 69.20,17.89 70.49,17.38 69.85,16.80 71.20,16.80 71.20,16.80 73.00,16.80 73.00,16.80 Z M 77.70,11.40 C 78.12,10.14 79.53,9.41 80.80,9.34 80.80,9.34 81.60,9.40 81.60,9.40 81.60,9.40 81.60,12.10 81.60,12.10 80.84,12.10 80.00,12.00 79.30,12.33 78.20,12.86 77.81,13.95 77.80,15.10 77.80,15.10 77.80,20.00 77.80,20.00 77.80,20.00 74.80,20.00 74.80,20.00 74.80,20.00 74.80,9.60 74.80,9.60 74.80,9.60 77.60,9.60 77.60,9.60 77.60,9.60 77.70,11.40 77.70,11.40 Z M 17.40,13.70 C 17.25,12.97 16.99,12.22 16.30,11.83 15.90,11.60 15.44,11.59 15.00,11.60 13.75,11.63 12.96,12.47 12.90,13.70 12.90,13.70 17.40,13.70 17.40,13.70 Z M 70.30,13.70 C 70.15,12.97 69.89,12.22 69.20,11.83 68.80,11.60 68.34,11.59 67.90,11.60 66.65,11.63 65.86,12.47 65.80,13.70 65.80,13.70 70.30,13.70 70.30,13.70 Z M 40.20,15.10 C 40.20,15.10 39.00,15.40 39.00,15.40 39.00,15.40 37.80,15.60 37.80,15.60 35.93,16.01 35.98,17.38 36.62,17.96 37.20,18.48 39.50,18.68 40.02,17.00 40.23,16.33 40.20,15.78 40.20,15.10 Z M 82.70,22.80 C 82.70,22.80 82.60,22.80 82.60,22.80 82.60,22.80 82.70,22.90 82.70,22.90 82.70,22.90 82.70,22.80 82.70,22.80 Z" id="Shape">
</svg>